<svg width="196" height="48" viewBox="0 0 196 48" fill="none" xmlns="http://www.w3.org/2000/svg">
  <rect width="48" height="48" rx="14" fill="#2563EB"/>
  <path d="M13 18C13 15.2386 15.2386 13 18 13H30C32.7614 13 35 15.2386 35 18V20H13V18Z" fill="#DBEAFE"/>
  <path d="M13 22H35V31C35 33.7614 32.7614 36 30 36H18C15.2386 36 13 33.7614 13 31V22Z" fill="white"/>
  <path d="M19.5 28H28.5" stroke="#2563EB" stroke-width="3" stroke-linecap="round"/>
  <path d="M24 23.5V32.5" stroke="#2563EB" stroke-width="3" stroke-linecap="round"/>
  <path d="M62 19.6H69.6V36H79.3V42H62V19.6Z" fill="#0F172A"/>
  <path d="M86.2641 42.56C81.1841 42.56 77.6641 39.08 77.6641 34.12C77.6641 29.16 81.1841 25.68 86.2641 25.68C91.3441 25.68 94.8241 29.16 94.8241 34.12C94.8241 39.08 91.3441 42.56 86.2641 42.56ZM86.2641 37.04C87.7441 37.04 88.8641 35.88 88.8641 34.12C88.8641 32.36 87.7441 31.2 86.2641 31.2C84.7441 31.2 83.6241 32.36 83.6241 34.12C83.6241 35.88 84.7441 37.04 86.2641 37.04Z" fill="#0F172A"/>
  <path d="M106.964 26H112.844V40.8C112.844 46.68 109.724 49.56 103.964 49.56C101.004 49.56 97.9642 48.8 96.0442 47.36L98.1642 42.92C99.4842 43.96 101.564 44.68 103.284 44.68C106.004 44.68 106.964 43.56 106.964 41.28V40.72C105.964 41.76 104.524 42.24 102.804 42.24C98.3642 42.24 95.0042 39.04 95.0042 33.96C95.0042 28.88 98.3642 25.68 102.804 25.68C104.764 25.68 106.324 26.28 107.324 27.56L106.964 26ZM104.204 37.16C105.924 37.16 107.244 36 107.244 33.96C107.244 31.96 105.924 30.76 104.204 30.76C102.444 30.76 101.124 31.96 101.124 33.96C101.124 36 102.444 37.16 104.204 37.16Z" fill="#0F172A"/>
  <path d="M126.768 42V40.32C125.608 41.68 123.928 42.28 121.928 42.28C118.248 42.28 115.328 39.24 115.328 33.96C115.328 28.72 118.248 25.68 121.928 25.68C123.688 25.68 125.288 26.2 126.448 27.4V19H132.328V42H126.768ZM123.848 37.04C125.328 37.04 126.448 35.88 126.448 34.12C126.448 32.36 125.328 31.2 123.848 31.2C122.328 31.2 121.208 32.36 121.208 34.12C121.208 35.88 122.328 37.04 123.848 37.04Z" fill="#0F172A"/>
  <path d="M142.053 26V28.16C143.253 26.52 145.173 25.68 147.653 25.68V31C147.093 30.92 146.693 30.88 146.093 30.88C143.493 30.88 141.733 32.16 141.733 35.48V42H135.853V26H142.053Z" fill="#0F172A"/>
  <path d="M164.004 35.08H152.764C153.244 36.72 154.644 37.56 156.844 37.56C158.564 37.56 159.724 37.12 160.964 36.2L164.044 39.4C162.324 41.24 159.844 42.28 156.684 42.28C150.804 42.28 146.964 38.68 146.964 33.96C146.964 29.16 150.884 25.68 156.044 25.68C160.804 25.68 164.404 28.72 164.404 34.04C164.404 34.44 164.324 34.84 164.004 35.08ZM156.084 29.92C154.244 29.92 152.964 30.92 152.604 32.64H159.564C159.204 30.92 157.924 29.92 156.084 29.92Z" fill="#0F172A"/>
  <path d="M173.211 42.28C170.171 42.28 167.171 41.6 165.531 40.56L167.291 36.56C168.851 37.52 171.171 38.12 173.211 38.12C174.971 38.12 175.491 37.76 175.491 37.16C175.491 35.44 166.091 37.4 166.091 31.08C166.091 27.92 169.011 25.68 174.291 25.68C176.611 25.68 179.091 26.16 180.731 27.12L178.971 31.08C177.411 30.16 175.891 29.88 174.291 29.88C172.491 29.88 171.971 30.36 171.971 30.84C171.971 32.64 181.331 30.76 181.331 37C181.331 40.12 178.451 42.28 173.211 42.28Z" fill="#0F172A"/>
</svg>

